<?xml version="1.0" encoding="utf-8"?>
<!-- Generator: Adobe Illustrator 26.0.3, SVG Export Plug-In . SVG Version: 6.00 Build 0)  -->
<svg version="1.1" id="body_1" xmlns="http://www.w3.org/2000/svg" xmlns:xlink="http://www.w3.org/1999/xlink" x="0px" y="0px"
	 viewBox="0 0 147 110" style="enable-background:new 0 0 147 110;" xml:space="preserve">
<style type="text/css">
	.st0{fill:#5AC8F5;}
	.st1{fill:#393F45;}
</style>
<g transform="matrix(0.34571967 0 0 0.34571967 -0 1.1005782)">
	<path class="st0" d="M248,251.3c0,2.8-2.2,5-5,5l0,0h-60.8c-2.8,0-5-2.2-5-5s2.2-5,5-5l0,0H243C245.8,246.3,248,248.6,248,251.3z
		 M181.4,139v37c19.9,7.7,40.8,7.5,62.4,0l0,0v-37l21.6-10.5l-53-25.6l-52.7,25.6L181.4,139L181.4,139z"/>
	<path class="st1" d="M378.4,225.7h-13.9V87.9c0-7.3-2.9-14.2-8-19.3c-5.1-5.1-12.1-8-19.3-8l0,0H98.3c-1.8,0-3.4,1-4.3,2.5
		c-0.9,1.5-0.9,3.5,0,5c0.9,1.5,2.5,2.5,4.3,2.5l0,0h238.9c4.6,0,9,1.8,12.3,5.1c3.3,3.3,5.1,7.7,5.1,12.3l0,0v137.9H70.7V62.3
		c0-9.6,7.7-17.3,17.3-17.4l0,0h249.2c2.8,0,5-2.2,5-5s-2.2-5-5-5l0,0H88c-15.1,0-27.3,12.3-27.3,27.4l0,0v163.5H46.8
		c-5.5,0-10,4.5-10,10l0,0V253c0,11.9,8.6,22.2,20.1,23.8c0.5,0.1,0.9,0.1,1.4,0.1l0,0h308.6c0.5,0,1,0,1.4-0.1
		c11.5-1.6,20.1-11.9,20.1-23.8l0,0v-17.3C388.4,230.2,384,225.7,378.4,225.7z M378.4,253c0.1,6.8-4.8,12.8-11.5,13.9l0,0H58.3
		c-6.7-1.2-11.6-7.1-11.5-13.9l0,0v-17.3h331.7V253z M179.6,180.6c10.2,4,21.1,6,32.1,6c11.5-0.1,22.9-2.1,33.8-6
		c2-0.7,3.4-2.6,3.4-4.7l0,0v-33.8l18.8-9.1c1.7-0.8,2.8-2.6,2.8-4.5s-1.1-3.7-2.8-4.5l0,0l-53-25.6c-1.4-0.7-3-0.7-4.3,0l0,0
		L157.6,124c-1.7,0.8-2.8,2.6-2.8,4.5s1.1,3.7,2.8,4.5l0,0l18.8,9.1V176C176.4,178,177.7,179.9,179.6,180.6z M238.8,172.3
		c-8.8,2.8-17.9,4.3-27.1,4.3c-8.6,0-17.2-1.4-25.3-4.2l0,0v-25.5l24.1,11.7c1.4,0.7,3,0.7,4.4,0l0,0l23.9-11.6V172.3z M212.5,108.5
		l41.5,20l-11.9,5.8c-0.3,0.1-0.5,0.2-0.7,0.4l0,0l-28.6,13.9l-41.5-20L212.5,108.5z"/>
</g>
</svg>
