<?xml version="1.0" encoding="utf-8"?>
<!-- Generator: Adobe Illustrator 26.0.3, SVG Export Plug-In . SVG Version: 6.00 Build 0)  -->
<svg version="1.1" id="body_1" xmlns="http://www.w3.org/2000/svg" xmlns:xlink="http://www.w3.org/1999/xlink" x="0px" y="0px"
	 viewBox="0 0 147 110" style="enable-background:new 0 0 147 110;" xml:space="preserve">
<style type="text/css">
	.st0{fill:#5AC8F5;}
	.st1{fill:#323C46;}
</style>
<g transform="matrix(0.34571967 0 0 0.34571967 -0 1.1005782)">
	<path class="st0" d="M284.1,119.5c-8.8-17.3-20.7-27.6-37.9-25.9c-20.7,11-49.9,1.4-72-7c-12.6-4.2-13.6,7.6-19,16l-13,16
		c-1.7-28.3-2.8-31.9,5-50l17-28c2.4-4.1,0.6,9,3.8,12.1c4.5-2.3,51.3-33.1,63.7-29.1c-3,18,5,25,14.4,25l19-3
		C280.6,65.8,284.9,86.7,284.1,119.5z M241.1,227.6h-54c-2.8,0-5,2.2-5,5s2.2,5,5,5h54c2.8,0,5-2.2,5-5S243.8,227.6,241.1,227.6z"/>
	<path class="st1" d="M294.1,144c0.1-1.3-0.3-2.6-1.1-3.7c-0.8-1-2.1-1.7-3.4-1.8l0,0h-0.4v-10.7c0-2.5,0-4.6,0-6l0,0v-2.2
		c0.1-2.5,0.1-4.9,0.1-7.3c0-14.6-1.2-27.1-4.3-38.5c-3.1-11.4-8.5-22-15.7-31.3c-1.1-1.5-2.9-2.2-4.7-1.9l0,0l-18.5,2.9
		c-1.3,0-2.5-0.2-3.7-0.7c-0.8-0.3-1.6-0.8-2.3-1.3c-1.2-1-2.1-2.3-2.6-3.7c-0.8-2.3-1.2-4.7-1.2-7.1c0-2.1,0.2-4.3,0.6-6.3
		c0.4-2.4-1-4.8-3.4-5.6c-1.3-0.4-2.8-0.6-4.2-0.6c-2.8,0.1-5.6,0.5-8.2,1.4c-5.7,1.8-11.2,4-16.5,6.7c-8.7,4.2-17.7,9.4-25,13.7
		c-3.3,2-6.2,3.7-8.6,5.2c0-0.4-0.1-0.8-0.1-1.2c-0.1-0.6-0.1-1.2-0.1-1.8c-0.1-0.6-0.1-0.9-0.1-1.3s-0.1-0.7-0.1-1
		s-0.1-0.5-0.2-0.8c-0.1-0.3-0.2-0.5-0.3-0.8s-0.2-0.5-0.4-0.8c-0.4-0.6-0.8-1.1-1.4-1.6c-0.4-0.3-0.9-0.6-1.4-0.7
		c-0.5-0.2-1.1-0.3-1.7-0.3c-0.5,0-1,0.1-1.5,0.2c-0.6,0.2-1.2,0.5-1.7,0.9c-0.5,0.3-0.9,0.7-1.2,1.2c-0.2,0.3-0.4,0.6-0.6,0.9l0,0
		l-17,28c-0.1,0.2-0.2,0.4-0.3,0.6c-2.1,4.7-3.9,9.5-5.2,14.5c-1,4.4-1.5,9-1.4,13.5c0,5.1,0.4,11,0.9,19.2
		c-0.2,0.6-0.3,1.2-0.4,1.8c0,0-0.1,10.4-0.2,23l0,0l-0.7,0.1c-2.8,0.2-4.9,2.5-4.7,5.3s2.5,4.9,5.3,4.7c-0.1,12.9-0.2,25.7-0.2,31
		c0,2,0.2,4,0.4,6c0.5,3.8,1.2,8.2,2.1,12.7c2.7,13.5,6.6,27.8,6.6,27.9c0.1,0.5,0.3,0.9,0.6,1.4l0,0l30,47.4l0.2,0.2
		c4.7,6.5,12.3,10.4,20.3,10.4l0,0h12.7v3c0,2.8,2.2,5,5,5c2.8,0,5-2.2,5-5l0,0v-3h14.6c8.1,0,15.8-4,20.4-10.6
		c0.1-0.1,0.2-0.3,0.3-0.4l0,0l27-48.4c0.2-0.4,0.4-0.9,0.5-1.3c0,0,1.8-7.6,3.5-16.6c0.9-4.5,1.8-9.4,2.5-13.8
		c0.3-2.2,0.6-4.4,0.8-6.4s0.3-3.8,0.3-5.4c0-5.3,0-20.1,0-34C291.7,148.6,293.9,146.6,294.1,144z M147.1,83.4
		c1.1-4.3,2.6-8.5,4.5-12.6l0,0L162.4,53v0.1c0.5,1.2,1.2,2.2,2.1,3.1c1.5,1.5,3.8,1.8,5.7,0.8c0.4-0.2,0.9-0.5,1.5-0.8l0,0l4.4-2.6
		c6.4-3.9,17-10.4,27.5-15.8c4.9-2.6,9.9-4.9,15-6.9c2-0.8,4.1-1.4,6.1-2c0.5-0.1,0.9-0.2,1.3-0.3c0,0.7-0.1,1.5-0.1,2.2
		c-0.1,3.3,0.5,6.6,1.5,9.8c0.7,2.1,1.7,4,3.1,5.8c1.9,2.4,4.3,4.3,7.1,5.6c2.7,1.1,5.5,1.7,8.4,1.7c0.3,0,0.5,0,0.8-0.1l0,0L263,51
		c5.6,7.7,9.8,16.3,12.3,25.5c2.2,8.5,3.5,17.3,3.7,26.1c-1.9-2.2-4-4.3-6.2-6.1c-3.2-2.6-6.8-4.6-10.6-6c-4-1.4-8.2-2.1-12.4-2.1
		c-1.4,0-2.7,0.1-4.1,0.2c-0.7,0.1-1.3,0.2-1.9,0.6c-2.9,1.5-6.1,2.7-9.3,3.3c-3.4,0.7-7,1-10.5,1c-8.2-0.2-16.4-1.4-24.3-3.7
		c-8.1-2.3-16-4.9-23.8-8l0,0l-0.2-0.1c-2-0.7-4.2-1.1-6.4-1.2c-1.5,0-3,0.2-4.4,0.7c-1.2,0.4-2.3,1-3.3,1.7c-1.6,1.1-2.9,2.5-4,4.1
		c-1.4,2.1-2.7,4.4-3.7,6.8c-0.9,2-1.9,3.9-3,5.8l0,0l-4.7,5.8c-0.2-4.3-0.4-7.9-0.4-10.9C145.9,90.8,146.3,87.1,147.1,83.4z
		 M146.5,123.9c0-1,0-1.9,0-2.7l0,0l12.6-15.5c0.1-0.1,0.2-0.3,0.3-0.5c1.2-2,2.4-4.1,3.3-6.3c0.7-1.5,1.3-2.8,1.9-4
		c0.4-0.7,0.9-1.5,1.4-2.2c0.4-0.7,1-1.3,1.7-1.7c0.2-0.1,0.5-0.2,0.7-0.3c0.3-0.1,0.7-0.1,1-0.1c1.1,0,2.1,0.2,3.1,0.6
		c8.1,3.2,16.3,5.9,24.7,8.2c8.7,2.5,17.8,3.8,26.9,4c4.2,0,8.4-0.4,12.6-1.3c3.8-0.8,7.5-2.1,10.9-3.8c0.8-0.1,1.5-0.1,2.2-0.1
		c3.1,0,6.1,0.5,9,1.5c4.3,1.6,8.2,4.3,11.3,7.7c3.6,3.9,6.6,8.4,9,13.1c0,2.6,0,9,0,16.9l0,0l-8.2-0.7c-0.8-0.3-1.6-0.6-2.4-0.9
		c-2.2-0.5-4.4-0.9-6.6-1c-2.5-0.2-5.1-0.3-8-0.3c-7.5,0-14.9,0.5-22.3,1.5c-3,0.4-5.9,0.9-8.8,1.7c-1.2,0.3-2.3,0.7-3.4,1.2
		c-0.1,0-0.2,0-0.4,0l0,0h-13.2c-0.7-0.3-1.4-0.6-2.2-0.8c-2.2-0.7-4.4-1.2-6.7-1.6c-8.9-1.5-18-2.3-27-2.4c-2.1,0-4.2,0.1-6.1,0.2
		c-1.4,0.1-2.8,0.2-4,0.4c-0.9,0.1-1.8,0.3-2.7,0.6c-1.3,0.3-2.5,0.8-3.6,1.5l0,0l-7.1,0.6C146.4,132.5,146.4,127.7,146.5,123.9z
		 M233.2,170.9c-0.3-0.2-0.5-0.4-0.8-0.6c-1.1-1.3-2-2.7-2.7-4.2c-1.5-3.2-2.7-6.6-3.5-10.1c-0.4-1.7-0.8-3.4-1-4.9
		c-0.2-1.1-0.3-2.2-0.3-3.3c1.6-0.5,3.3-0.8,5-1.1c7.9-1.2,16-1.9,24-1.9c3.3,0,6.6,0.1,9.8,0.6c1.1,0.1,2.1,0.5,2.9,1.3
		c0.1,0.3,0.2,0.7,0.3,1.1c0.3,1.5,0.4,3,0.4,4.4c0,4-0.7,8-2.1,11.8c-0.6,1.5-1.4,2.9-2.3,4.2c-0.4,0.4-0.8,0.9-1.2,1.2
		c-0.3,0.3-0.7,0.5-1,0.6c-7.2,2.5-15,3.2-22.5,2.2C236.4,171.9,234.7,171.5,233.2,170.9L233.2,170.9z M192.3,170.9
		c-1.6,0.6-3.2,1-4.8,1.2c-7.6,1-15.3,0.3-22.5-2.2c-0.3-0.1-0.7-0.3-0.9-0.6c-0.7-0.7-1.3-1.5-1.7-2.4c-1-2.3-1.6-4.7-1.9-7.1
		c-0.4-2.9-0.6-5.8-0.5-8.7c0-1.7,0-3.4,0.1-4.8c0.3-0.9,1.1-1.5,2.1-1.5c0.6-0.1,1.3-0.1,2-0.2c1.8-0.1,3.8-0.2,6-0.2
		c7.3,0.1,14.5,0.6,21.7,1.6c2.7,0.4,5.4,0.9,8.1,1.5l0,0l0.5,0.2c0.1,0.1,0.1,0.1,0.2,0.2c0,0.6-0.1,1.4-0.2,2.2
		c-0.8,5.8-2.4,11.4-4.9,16.7c-0.6,1.2-1.3,2.3-2.1,3.3c-0.2,0.3-0.5,0.5-0.8,0.8l0,0H192.3L192.3,170.9z M278.8,187
		c-0.3,3.1-0.9,6.9-1.6,10.8c-1,5.9-2.3,12.1-3.3,16.8c-0.5,2.4-0.9,4.3-1.2,5.7c-0.1,0.6-0.2,1.1-0.3,1.5l0,0l-26.5,47.4
		c-2.8,3.9-7.3,6.2-12.2,6.2l0,0h-14.6v-25c0-1.8-1-3.4-2.5-4.3c-1.5-0.9-3.5-0.9-5,0c-1.5,0.9-2.5,2.5-2.5,4.3l0,0v25h-12.7
		c-4.8,0-9.3-2.3-12.1-6.2l0,0l-29.5-46.6c-0.6-2.4-2.7-10.3-4.7-19.1c-1-4.6-2-9.5-2.8-13.8c-0.4-2.2-0.7-4.2-0.9-6
		c-0.2-1.5-0.3-2.9-0.3-4.4c0-5.3,0.1-18.7,0.2-31.9l0,0l3.5-0.3c0,1.2-0.1,2.4-0.1,3.7c0,2.4,0.1,5,0.3,7.6c0.3,4,1.2,7.9,2.7,11.6
		c0.8,1.9,1.9,3.6,3.2,5.2c1.4,1.6,3.3,2.9,5.3,3.7c6.3,2.3,12.9,3.4,19.5,3.3c2.7,0,5.4-0.2,8.1-0.6c2.4-0.3,4.7-0.9,7-1.8
		c1.5-0.6,2.9-1.6,4.1-2.7c1.9-2,3.4-4.3,4.6-6.8c1.9-3.9,3.3-8,4.3-12.2c0.5-2.1,0.9-4.1,1.2-5.9c0.2-1.2,0.3-2.4,0.4-3.5l0,0h4.5
		c0,0.7,0.1,1.4,0.2,2.1c0.3,2.6,0.8,5.3,1.5,7.9c1,4.2,2.5,8.3,4.4,12.2c0.9,1.8,2,3.6,3.3,5.2c0.7,0.8,1.4,1.5,2.2,2.2
		c0.9,0.7,1.8,1.2,2.8,1.6c2.3,0.8,4.6,1.4,7,1.8c2.7,0.4,5.4,0.6,8.1,0.6c6.7,0.1,13.3-1.1,19.5-3.3c1.3-0.5,2.5-1.2,3.6-2.1
		c1.8-1.5,3.3-3.2,4.5-5.2c1.8-3,3-6.3,3.8-9.7c0.8-3.3,1.2-6.8,1.2-10.2c0-1.5-0.1-3.1-0.3-4.6l0,0l2.1,0.2c0,14.2,0,29.5,0,34.9
		C279.1,183.7,279,185.2,278.8,187z"/>
</g>
</svg>
