<?xml version="1.0" encoding="utf-8"?>
<!-- Generator: Adobe Illustrator 26.0.3, SVG Export Plug-In . SVG Version: 6.00 Build 0)  -->
<svg version="1.1" id="body_1" xmlns="http://www.w3.org/2000/svg" xmlns:xlink="http://www.w3.org/1999/xlink" x="0px" y="0px"
	 viewBox="0 0 147 110" style="enable-background:new 0 0 147 110;" xml:space="preserve">
<style type="text/css">
	.st0{fill:#5AC8F5;}
	.st1{fill:#393F45;}
</style>
<g transform="matrix(0.34571967 0 0 0.34571967 -0 1.1005782)">
	<path class="st0" d="M271.1,114.2c0,16.2-5.7,30-17.2,41.4c-11.4,11.4-25.2,17.2-41.4,17.2s-30-5.7-41.4-17.2
		c-11.4-11.4-17.2-25.2-17.2-41.4s5.7-30,17.2-41.4c11.4-11.4,25.2-17.2,41.4-17.2c16.2,0,30,5.7,41.4,17.2
		C265.4,84.2,271.1,98,271.1,114.2c0,0.7,0,1.4,0,2"/>
	<path class="st1" d="M306.7,113.6c0,26.1-10.8,51.1-29.8,69l0,0l-0.1,0.1l-1.8,1.6l-0.1,0.1c-4.4,3.9-7.9,8.8-10.1,14.3
		c-2.5,6.2-4,12.7-4.5,19.3l0,0v5.6c0,2.8-2.2,5-5,5l0,0h-80.5v22.1h70.5c2.8,0,5,2.2,5,5l0,0v32c0,2.8-2.2,5-5,5l0,0h-67.3
		c-2.8,0-5-2.2-5-5s2.2-5,5-5l0,0h62.3v-22h-70.5c-2.8,0-5-2.2-5-5l0,0v-32.1c0-2.8,2.2-5,5-5l0,0h80.5v-0.9c0-0.2,0-0.3,0-0.5
		c0.6-7.7,2.3-15.3,5.2-22.5c2.8-6.8,7.1-13,12.6-17.9l0,0l1.8-1.6c25.7-24.1,33.6-61.6,19.9-94c-13.7-32.4-46.2-52.8-81.3-51.2
		c-35.2,1.7-65.5,25.1-76.1,58.7s0.9,70.2,28.7,91.7c1.4,1.1,2.2,2.9,1.9,4.6c-0.2,1.8-1.4,3.3-3.1,4c-1.7,0.7-3.6,0.4-5-0.7
		c-21.4-16.6-34.6-41.7-36.4-68.7s8.2-53.5,27.4-72.8c26.9-26.9,67.5-35,102.6-20.4S306.8,75.5,306.7,113.6L306.7,113.6L306.7,113.6
		z M212.6,68.7c-2.8,0-5,2.2-5,5l0,0v36.1h-36.1c-2.8,0-5,2.2-5,5s2.2,5,5,5l0,0h36.1V156c0,2.8,2.2,5,5,5c2.8,0,5-2.2,5-5l0,0
		v-36.1h36.1c2.8,0,5-2.2,5-5s-2.2-5-5-5l0,0h-36.1V73.7C217.6,71,215.3,68.7,212.6,68.7z"/>
</g>
</svg>
